<?xml version="1.0" encoding="utf-8"?>
<!-- Generator: Adobe Illustrator 24.0.3, SVG Export Plug-In . SVG Version: 6.00 Build 0)  -->
<!DOCTYPE svg PUBLIC "-//W3C//DTD SVG 1.1//EN" "http://www.w3.org/Graphics/SVG/1.1/DTD/svg11.dtd" [
	<!ENTITY ns_extend "http://ns.adobe.com/Extensibility/1.0/">
	<!ENTITY ns_ai "http://ns.adobe.com/AdobeIllustrator/10.0/">
	<!ENTITY ns_graphs "http://ns.adobe.com/Graphs/1.0/">
	<!ENTITY ns_vars "http://ns.adobe.com/Variables/1.0/">
	<!ENTITY ns_imrep "http://ns.adobe.com/ImageReplacement/1.0/">
	<!ENTITY ns_sfw "http://ns.adobe.com/SaveForWeb/1.0/">
	<!ENTITY ns_custom "http://ns.adobe.com/GenericCustomNamespace/1.0/">
	<!ENTITY ns_adobe_xpath "http://ns.adobe.com/XPath/1.0/">
]>
<svg version="1.1" id="Слой_1" xmlns:x="&ns_extend;" xmlns:i="&ns_ai;" xmlns:graph="&ns_graphs;"
	 xmlns="http://www.w3.org/2000/svg" xmlns:xlink="http://www.w3.org/1999/xlink" x="0px" y="0px" viewBox="0 0 52.8 30"
	 style="enable-background:new 0 0 52.8 30;" xml:space="preserve">
<style type="text/css">
	.st0{fill:#C5D4D4;}
	.st1{fill:#BCCBCB;}
	.st2{fill:#ACC0C1;}
	.st3{fill:#A0B3B4;}
</style>
<metadata>
	<sfw  xmlns="&ns_sfw;">
		<slices></slices>
		<sliceSourceBounds  bottomLeftOrigin="true" height="30" width="52.8" x="0" y="0.4"></sliceSourceBounds>
	</sfw>
</metadata>
<g id="Layer0_89_FILL">
	<path class="st0" d="M35.5,21.6l6,1l0.7-4.9L34,19.3L35.5,21.6 M17.7,0.1l2,6.5L32,13.3l1.1-9.2l-14.2-4C18.5,0,18.1,0,17.7,0.1z"
		/>
	<path class="st1" d="M37.6,5.8c-0.2-0.5-0.7-0.8-1.2-0.9l-3.2-0.8L32,13.3l7.2-4.8L37.6,5.8 M44.8,17.4l-2.5,0.4l-0.7,4.9l10,1.7
		l1-2.5c0.2-0.3,0.2-0.7,0.2-1.1c-0.1-0.4-0.3-0.7-0.5-1c-0.3-0.3-0.6-0.5-1-0.6L44.8,17.4 M0,19.8c0,0.1,0,0.3,0,0.5L19.7,6.6
		l-2-6.6c-0.4,0.1-0.7,0.3-1,0.6L0.5,18.6C0.2,18.9,0.1,19.3,0,19.8z"/>
	<path class="st2" d="M0.3,21l5.2,9h43.9l2.2-5.7l-10-1.7l-6-1L34,19.3l8.3-1.5l2.5-0.4l-5.5-8.9L32,13.3L19.7,6.6L0,20.2
		C0,20.5,0.1,20.8,0.3,21 M5.8,26.5l-1.7-3l3-1.7l1.7,3L5.8,26.5 M28.3,19.3l-1.7-3l3-1.7l1.8,3L28.3,19.3 M28.7,22.4l-1.9,1.1
		l-1-1.9l1.9-1.1L28.7,22.4z"/>
	<path class="st3" d="M26.9,23.6l1.9-1.1l-1-1.9l-1.9,1.1L26.9,23.6 M26.7,16.4l1.7,3l3-1.7l-1.8-3L26.7,16.4 M4.1,23.5l1.8,3l3-1.7
		l-1.7-2.9L4.1,23.5z"/>
</g>
</svg>
