<?xml version="1.0" encoding="utf-8"?>
<!-- Generator: Adobe Illustrator 23.0.5, SVG Export Plug-In . SVG Version: 6.00 Build 0)  -->
<svg version="1.1" id="Слой_1" xmlns="http://www.w3.org/2000/svg" xmlns:xlink="http://www.w3.org/1999/xlink" x="0px" y="0px"
	 viewBox="0 0 247 166.5" style="enable-background:new 0 0 247 166.5;" xml:space="preserve">
<style type="text/css">
	.st0{fill:#E09822;}
	.st1{fill:#C47500;}
	.st2{fill:#D88E0B;}
	.st3{fill:#D38200;}
	.st4{fill:#EDC02F;}
	.st5{fill:#F9DD4F;}
	.st6{fill:#F7C752;}
	.st7{fill:#F9F7F3;}
	.st8{fill:#E5B325;}
	.st9{fill:#DD9007;}
</style>
<g>
	<path class="st0" d="M123.9,100.7H47.4c-0.9,0-1.7-0.1-2.5-0.3c0,4.8,0,14.3,0,18.2c0,8.3,4.9,15.2,9.8,21.6
		c5.4,7.1,12.8,12.1,20.8,16c15,7.3,31.8,10.3,48.4,10.3V100.7z"/>
	<path class="st1" d="M51.9,112.4c-4.1,5.1-2.9,14-2.7,20c0,1.3,2.1,1.3,2.1,0c-0.2-5.2-1.4-14.2,2.1-18.6
		C54.2,112.9,52.8,111.4,51.9,112.4L51.9,112.4z"/>
	<path class="st1" d="M57.7,120.6c-2,2.2-1.9,4.6-1.9,7.5c0,4.5,0,9.1,0,13.6c0,1.3,2.1,1.3,2.1,0c0-3,0-6,0-9.1
		c0-2.9-0.8-8.2,1.3-10.5C60.1,121,58.6,119.6,57.7,120.6L57.7,120.6z"/>
	<path class="st2" d="M192.2,83.3c-13.7-19-39.1-31.4-68.3-31.4c-18.3,0-36.2,6.5-50.6,17.5c-4.7,3.6-9.1,7.6-13,12.1
		c-0.5,0.6-1,1.2-1.4,1.7H192.2z"/>
	<path class="st3" d="M123.9,100.7h77.9c0.9,0,1.7-0.1,2.6-0.3c0,4.8,0,14.3,0,18.2c0,8.3-5,15.2-10,21.6c-5.5,7.1-13,12.1-21.2,16
		c-15.2,7.3-32.5,10.3-49.4,10.3V100.7z"/>
	<ellipse class="st4" cx="124.6" cy="99.3" rx="79.7" ry="51"/>
	<path class="st2" d="M1,109c8.5,1.5,17,3,25.5,4.4c1.7,0.3,2.5-2.4,0.7-2.7c-8.5-1.5-17-3-25.5-4.4C0,106-0.8,108.7,1,109L1,109z"
		/>
	<path class="st2" d="M8.7,49.5c8.1,4.8,16.3,9.6,24.4,14.4c1.5,0.9,2.9-1.5,1.4-2.4c-8.1-4.8-16.3-9.6-24.4-14.4
		C8.6,46.2,7.2,48.6,8.7,49.5L8.7,49.5z"/>
	<path class="st2" d="M53.7,10.7c4.8,6.5,9.6,12.9,14.4,19.4c1.1,1.4,3.5,0,2.4-1.4c-4.8-6.5-9.6-12.9-14.4-19.4
		C55.1,7.9,52.7,9.3,53.7,10.7L53.7,10.7z"/>
	<path class="st2" d="M245.3,106.3c-8.5,1.5-17,3-25.5,4.4c-1.8,0.3-1,3,0.7,2.7c8.5-1.5,17-3,25.5-4.4
		C247.8,108.7,247,106,245.3,106.3L245.3,106.3z"/>
	<path class="st2" d="M236.9,47.1c-8.1,4.8-16.3,9.6-24.4,14.4c-1.5,0.9-0.1,3.3,1.4,2.4c8.1-4.8,16.3-9.6,24.4-14.4
		C239.8,48.6,238.4,46.2,236.9,47.1L236.9,47.1z"/>
	<path class="st2" d="M190.9,9.3c-4.8,6.5-9.6,12.9-14.4,19.4c-1.1,1.4,1.3,2.8,2.4,1.4c4.8-6.5,9.6-12.9,14.4-19.4
		C194.4,9.3,192,7.9,190.9,9.3L190.9,9.3z"/>
	<path class="st2" d="M121.5,25.5L121.5,25.5c-0.9,0-1.7-0.7-1.7-1.7V1.7c0-0.9,0.7-1.7,1.7-1.7h0c0.9,0,1.7,0.7,1.7,1.7v22.2
		C123.2,24.8,122.4,25.5,121.5,25.5z"/>
	<polygon class="st5" points="104.6,94.3 116.2,76 135.6,76 141.5,122.9 109.8,122.9 115.6,93.9 	"/>
	<polygon class="st2" points="104.6,94.3 104.6,98.3 114.8,98.3 115.6,93.9 	"/>
	<polygon class="st2" points="109.8,122.9 109.8,127.5 142.2,127.5 141.5,122.9 	"/>
	<path class="st1" d="M64,130.5c0,6,0,12,0,18c0,1.3,2.1,1.3,2.1,0c0-6,0-12,0-18C66.1,129.1,64,129.1,64,130.5L64,130.5z"/>
	<path class="st1" d="M74.3,136.6c0,6,0,12,0,18c0,1.3,2.1,1.3,2.1,0c0-6,0-12,0-18C76.3,135.3,74.3,135.3,74.3,136.6L74.3,136.6z"
		/>
	<path class="st1" d="M85.8,141.6c0,6,0,12,0,18c0,1.3,2.1,1.3,2.1,0c0-6,0-12,0-18C87.9,140.3,85.8,140.3,85.8,141.6L85.8,141.6z"
		/>
	<path class="st1" d="M96.2,144.6c0,6,0,12,0,18c0,1.3,2.1,1.3,2.1,0c0-6,0-12,0-18C98.3,143.3,96.2,143.3,96.2,144.6L96.2,144.6z"
		/>
	<path class="st1" d="M108.2,146.7c0,6,0,12,0,18c0,1.3,2.1,1.3,2.1,0c0-6,0-12,0-18C110.3,145.4,108.2,145.4,108.2,146.7
		L108.2,146.7z"/>
	<path class="st1" d="M121.4,147.3c0,6,0,12,0,18c0,1.3,2.1,1.3,2.1,0c0-6,0-12,0-18C123.5,146,121.4,146,121.4,147.3L121.4,147.3z"
		/>
	<path class="st1" d="M192.1,117.6c3.5,4.4,2.3,13.3,2.1,18.6c0,1.3,2,1.3,2.1,0c0.2-6.1,1.4-14.9-2.7-20
		C192.7,115.1,191.3,116.6,192.1,117.6L192.1,117.6z"/>
	<path class="st1" d="M185.8,124.1c2.2,2.5,1.3,7.5,1.3,10.5c0,3,0,6,0,9.1c0,1.3,2.1,1.3,2.1,0c0-4.5,0-9.1,0-13.6
		c0-2.8,0.1-5.3-1.9-7.5C186.3,121.6,184.9,123.1,185.8,124.1L185.8,124.1z"/>
	<path class="st1" d="M178.9,132.4c0,6,0,12,0,18c0,1.3,2.1,1.3,2.1,0c0-6,0-12,0-18C180.9,131.1,178.9,131.1,178.9,132.4
		L178.9,132.4z"/>
	<path class="st1" d="M168.6,138.1c0,6,0,12,0,18c0,1.3,2.1,1.3,2.1,0c0-6,0-12,0-18C170.7,136.8,168.6,136.8,168.6,138.1
		L168.6,138.1z"/>
	<path class="st1" d="M157.1,142c0,6,0,12,0,18c0,1.3,2.1,1.3,2.1,0c0-6,0-12,0-18C159.2,140.7,157.1,140.7,157.1,142L157.1,142z"/>
	<path class="st1" d="M146.7,145.1c0,6,0,12,0,18c0,1.3,2.1,1.3,2.1,0c0-6,0-12,0-18C148.8,143.7,146.7,143.7,146.7,145.1
		L146.7,145.1z"/>
	<path class="st1" d="M134.6,146.6c0,6,0,12,0,18c0,1.3,2.1,1.3,2.1,0c0-6,0-12,0-18C136.7,145.2,134.6,145.2,134.6,146.6
		L134.6,146.6z"/>
	<path class="st6" d="M92.7,71.2c-13,3.6-27.2,11.1-28.5,26.1c-1.3,15.7,12.8,26.4,26.4,30.5c3.4,1,4.8-4.2,1.4-5.2
		c-11.2-3.3-23.8-12-22.4-25.3C70.9,85,83.7,79.4,94.1,76.4C97.5,75.5,96.1,70.2,92.7,71.2L92.7,71.2z"/>
	<path class="st7" d="M117.2,77.8c-3,4.5-5.9,8.9-8.9,13.4c-1,1.5,1.4,2.9,2.4,1.4c3-4.5,5.9-8.9,8.9-13.4
		C120.6,77.7,118.2,76.3,117.2,77.8L117.2,77.8z"/>
	<path class="st8" d="M193.7,73.3c3,5.4,4.6,11.2,4.6,17.3c0,28.4-35.7,51.4-79.8,51.4c-29.6,0-55.4-10.3-69.2-25.7
		c11,19.9,40.5,34.2,75.2,34.2c44.1,0,79.8-23,79.8-51.4C204.4,89.6,200.5,80.8,193.7,73.3z"/>
	<path class="st9" d="M189,99.3c-0.4,21.6-25.1,32.8-43.1,36.7c-23.1,5-50.9,2.5-70.7-11.4c-7.3-5.1-13.7-12.4-15.2-21.4
		c-1.5-9.4,3-18.2,9.7-24.6C86.7,62.5,113.7,58.6,136,61C156.5,63.3,188.5,74.1,189,99.3c0,1.3,2.1,1.3,2.1,0
		c-0.5-22-24.5-34.1-43.1-38.4c-24.7-5.7-55.2-3.1-75.8,12.8C65,79.3,59,86.9,57.8,96.1c-1.1,9,2.7,17.4,8.8,23.8
		c17.5,18.5,47.8,22.6,71.7,19.5c21.1-2.8,52.2-14.5,52.7-40.1C191.1,98,189,98,189,99.3z"/>
</g>
</svg>
