<?xml version="1.0" encoding="utf-8"?>
<!-- Generator: Adobe Illustrator 22.0.1, SVG Export Plug-In . SVG Version: 6.00 Build 0)  -->
<svg version="1.1" id="Layer_1" xmlns="http://www.w3.org/2000/svg" xmlns:xlink="http://www.w3.org/1999/xlink" x="0px" y="0px"
	 viewBox="0 0 2952.6 2571.2" style="enable-background:new 0 0 2952.6 2571.2;" xml:space="preserve">
<style type="text/css">
	.st0{fill:#FF9900;}
	.st1{fill:#201600;}
	.st2{fill:#FFC200;}
</style>
<g>
	<g>
		<path class="st0" d="M214.3,2555.6c-3.7-0.7-7.2-2.1-10.5-4.5c-11.7-8.4-14.4-24.8-6-36.6c1.7-2.4,169.9-238.8,386.1-516
			c127-162.9,245.5-307.8,352.2-430.7c133.8-154.1,249.4-274.1,343.8-356.6c255.5-223.5,971.3-960.6,978.5-968
			c10.1-10.4,26.6-10.6,36.9-0.5c10.3,10.1,10.5,26.7,0.4,37.1c-7.2,7.4-724.5,746-981.6,971c-166.2,145.4-404.5,415.1-689,780
			C409.6,2307,241.9,2542.6,240.3,2545C234.2,2553.5,224,2557.3,214.3,2555.6z"/>
		<path class="st1" d="M218.9,2571c-2.4,0-4.9-0.2-7.3-0.7h0c-6-1.1-11.5-3.5-16.5-7c-18.4-13.2-22.6-39-9.5-57.5
			c1.7-2.4,169.9-238.8,386.5-516.5C699.3,1826.2,818,1681.1,924.8,1558c134.2-154.6,250.4-275.1,345.2-358.1
			c255.6-223.6,970.4-959.8,977.6-967.2c7.7-7.9,18-12.4,29-12.5c11-0.1,21.3,4,29.2,11.8c16.1,15.9,16.4,42,0.6,58.3
			c-7.2,7.4-724.4,746-982.5,971.8c-165.5,144.8-403.1,413.8-687,777.9c-215.9,276.8-382.7,511.4-384.4,513.7
			C244.7,2564.6,232.1,2571,218.9,2571z M217,2540.8c4.2,0.8,8.5-1,11-4.5c1.7-2.3,168.9-237.5,385.2-514.8
			c285.1-365.6,524-636,691-782c257.2-225,973.5-962.7,980.7-970.1c4.3-4.5,4.3-11.6-0.1-16c-2.1-2-4.8-3.1-7.7-3.1c0,0-0.1,0-0.1,0
			c-3,0-5.7,1.2-7.8,3.4c-7.2,7.4-722.9,744.5-979.4,968.9c-93.8,82.1-209,201.6-342.3,355.2c-106.5,122.7-224.9,267.4-351.7,430.1
			c-216.2,277.2-384,513.1-385.7,515.4c-3.6,5.1-2.5,12.1,2.5,15.8C214,2539.9,215.5,2540.5,217,2540.8L217,2540.8z"/>
	</g>
</g>
<g>
	<path class="st0" d="M1656.5,1218.2c0,0-107.7,137.1-229.6,175.8c-121.9,38.7-188.7,13.8-211.9-35.7
		c-23.2-49.5,5.8-104.8,127.7-143.4S1656.5,1218.2,1656.5,1218.2z"/>
	<path class="st1" d="M1321.3,1427.9c-14.6,0-28.1-1.4-40.6-4.1c-37.5-8.2-65-28.6-79.3-59.2c-11-23.4-11.6-47.5-1.9-69.8
		c16.9-38.7,63.6-70.5,138.7-94.3c52.5-16.6,122.6-21.2,208.5-13.5c63.4,5.7,111.1,16,113,16.5c5,1.1,9.2,4.7,10.9,9.6
		s0.9,10.3-2.3,14.3c-1.1,1.4-28.1,35.7-70.7,75.1c-57.6,53.4-113.5,89-166.2,105.7C1390.2,1421.3,1353.3,1427.9,1321.3,1427.9z
		 M1470.1,1213.5c-42.7,0-86.3,4-122.9,15.6c-82.8,26.3-111.1,56.7-120.2,77.7c-6.3,14.4-5.8,29.5,1.6,45.1
		c23.2,49.4,93.8,59.5,193.8,27.8c89.3-28.3,172-113.2,206.1-151.5C1595.3,1222.4,1533.8,1213.5,1470.1,1213.5z"/>
</g>
<g>
	<path class="st0" d="M1397.7,766.2c0,0,42.7,196.4,6.1,321.8s-90.3,155.7-138.7,132.3c-48.4-23.4-73.3-91.6-36.7-217
		C1265,877.8,1397.7,766.2,1397.7,766.2z"/>
	<path class="st1" d="M1294.9,1242.5c-12.1,0-24.3-2.9-36.4-8.7c-29.9-14.5-50.1-42.3-58.4-80.6c-8.8-40.8-4.1-92.6,13.8-154.1
		c15.8-54.1,49.9-111.7,101.5-171.1c38.1-44,71.2-72,72.6-73.2c4-3.4,9.5-4.4,14.5-2.7c5,1.7,8.7,5.9,9.8,11
		c0.4,2,10.9,50.7,17,115.7c8.3,87.9,4.5,159.7-11.2,213.5c-22.9,78.2-53.9,126.6-92.4,143.6
		C1315.8,1240.2,1305.4,1242.5,1294.9,1242.5z M1388,795.3c-37.5,35.7-118.6,120.9-145.2,212.1c-30.2,103.2-19.7,175.9,28.8,199.3
		c14.8,7.1,28.5,7.7,42.1,1.7c20.6-9.2,50.5-38.2,75.7-124.6C1416.8,989.8,1397.8,852.2,1388,795.3z"/>
</g>
<g>
	<path class="st0" d="M1430.9,1431.6c0,0-107.7,137.1-229.6,175.8c-121.9,38.7-188.7,13.8-211.9-35.7
		c-23.2-49.5,5.8-104.8,127.7-143.4C1239,1389.5,1430.9,1431.6,1430.9,1431.6z"/>
	<path class="st1" d="M1095.7,1641.3c-14.6,0-28.1-1.4-40.6-4.1c-37.5-8.2-65-28.6-79.3-59.2c-11-23.4-11.6-47.5-1.9-69.8
		c16.9-38.7,63.6-70.5,138.7-94.3c52.5-16.6,122.6-21.2,208.5-13.5c63.4,5.7,111.1,16,113,16.5c5,1.1,9.2,4.7,10.9,9.6
		s0.9,10.3-2.3,14.3c-1.1,1.4-28.1,35.7-70.7,75.1c-57.6,53.4-113.5,89-166.2,105.7C1164.6,1634.7,1127.7,1641.3,1095.7,1641.3z
		 M1244.5,1426.9c-42.7,0-86.3,4-122.9,15.6c-82.8,26.3-111.1,56.7-120.2,77.7c-6.3,14.4-5.8,29.5,1.6,45.1
		c23.2,49.4,93.8,59.5,193.8,27.8c89.3-28.3,172-113.2,206.1-151.5C1369.8,1435.8,1308.2,1426.9,1244.5,1426.9z"/>
</g>
<g>
	<path class="st0" d="M1172.1,979.6c0,0,42.7,196.4,6.1,321.8s-90.3,155.7-138.7,132.3c-48.4-23.4-73.3-91.6-36.7-217
		C1039.4,1091.2,1172.1,979.6,1172.1,979.6z"/>
	<path class="st1" d="M1069.3,1455.8c-12.1,0-24.3-2.9-36.4-8.7c-29.9-14.5-50.1-42.3-58.4-80.6c-8.8-40.8-4.1-92.6,13.8-154.1
		c15.8-54.1,49.9-111.7,101.5-171.1c38.1-44,71.2-72,72.6-73.2c4-3.4,9.5-4.4,14.5-2.7c5,1.7,8.7,5.9,9.8,11
		c0.4,2,10.9,50.7,17,115.7c8.3,87.9,4.5,159.7-11.2,213.5c-22.9,78.2-53.9,126.6-92.4,143.6
		C1090.2,1453.6,1079.8,1455.8,1069.3,1455.8z M1162.4,1008.7c-37.5,35.7-118.6,120.9-145.2,212.1
		c-30.2,103.2-19.7,175.9,28.8,199.3c14.8,7.1,28.5,7.7,42.1,1.7c20.6-9.2,50.5-38.2,75.7-124.6
		C1191.2,1203.3,1172.2,1065.6,1162.4,1008.7z M1181.8,991L1181.8,991L1181.8,991z"/>
</g>
<g>
	<path class="st0" d="M953.9,1239.3c0,0,55.5,181.7,28.3,298.6c-27.1,116.9-77.6,145.8-126.6,124.8c-49.1-21-78.2-84-51-200.9
		C831.7,1344.8,953.9,1239.3,953.9,1239.3z"/>
	<path class="st1" d="M884.4,1684c-11.4,0-23-2.5-34.7-7.5c-30.1-12.9-51.8-38.5-62.5-73.9c-11.5-38-10.6-86.5,2.8-144.2
		c11.8-50.8,41.4-105,87.9-161.3c34.3-41.5,64.9-68.1,66.2-69.2c3.8-3.3,9.1-4.5,14-3.1c4.9,1.4,8.7,5.2,10.2,10
		c0.6,1.9,14.3,47,24.8,107.3c14.3,81.7,15.5,148.7,3.8,199.1c-16.6,71.3-42.8,116.6-78.1,134.4C907.9,1681.2,896.3,1684,884.4,1684
		z M946,1267.2c-34.1,33.6-107.2,113.4-126.8,197.9c-22.2,95.7-6.8,162.7,42.3,183.8c15.7,6.8,30.4,6.8,43.7,0.1
		c18.5-9.4,44.4-36.9,62.4-114.5C987.9,1447.2,959.5,1319.5,946,1267.2z M963.7,1250.6L963.7,1250.6L963.7,1250.6z"/>
</g>
<g>
	<path class="st0" d="M1862.6,999.1c0,0-107.7,137.1-229.6,175.8s-188.7,13.8-211.9-35.7c-23.2-49.5,5.8-104.8,127.7-143.4
		S1862.6,999.1,1862.6,999.1z"/>
	<path class="st1" d="M1527.4,1208.8c-14.6,0-28.1-1.4-40.6-4.1c-37.5-8.2-65-28.6-79.3-59.2c-11-23.4-11.6-47.5-1.9-69.8
		c16.9-38.7,63.6-70.5,138.7-94.3c52.5-16.6,122.6-21.2,208.5-13.5c63.4,5.7,111.1,16,113,16.5c5,1.1,9.2,4.7,10.9,9.6
		s0.9,10.3-2.3,14.3c-1.1,1.4-28.1,35.7-70.7,75.1c-57.6,53.4-113.5,89-166.2,105.7C1596.3,1202.2,1559.4,1208.8,1527.4,1208.8z
		 M1676.2,994.4c-42.7,0-86.3,4-122.9,15.6c-82.8,26.3-111.1,56.7-120.2,77.7c-6.3,14.4-5.8,29.5,1.6,45.1
		c23.2,49.4,93.8,59.5,193.8,27.8c89.3-28.3,172-113.2,206.1-151.5C1801.5,1003.3,1739.9,994.4,1676.2,994.4z"/>
</g>
<g>
	<path class="st0" d="M1603.8,547.1c0,0,42.7,196.4,6.1,321.8s-90.3,155.7-138.7,132.3c-48.4-23.4-73.3-91.6-36.7-217
		S1603.8,547.1,1603.8,547.1z"/>
	<path class="st1" d="M1501,1023.4c-12.1,0-24.3-2.9-36.4-8.7c-29.9-14.5-50.1-42.3-58.4-80.6c-8.8-40.8-4.1-92.6,13.8-154.1
		c15.8-54.1,49.9-111.7,101.5-171.1c38.1-44,71.2-72,72.6-73.2c4-3.4,9.5-4.4,14.5-2.7c5,1.7,8.7,5.9,9.8,11
		c0.4,2,10.9,50.7,17,115.7c8.3,87.9,4.5,159.7-11.2,213.5c-22.9,78.2-53.9,126.6-92.4,143.6
		C1521.9,1021.2,1511.5,1023.4,1501,1023.4z M1594.1,576.3c-37.5,35.7-118.6,120.9-145.2,212.1c-30.2,103.2-19.7,175.9,28.8,199.3
		c14.8,7.1,28.5,7.7,42.1,1.7c20.6-9.2,50.5-38.2,75.7-124.6C1622.9,770.9,1603.9,633.1,1594.1,576.3z"/>
</g>
<g>
	<path class="st0" d="M2070.7,785.4c0,0-107.7,137.1-229.6,175.8s-188.7,13.8-211.9-35.7c-23.2-49.5,5.8-104.8,127.7-143.4
		S2070.7,785.4,2070.7,785.4z"/>
	<path class="st1" d="M1735.5,995.1c-14.6,0-28.1-1.4-40.6-4.1c-37.5-8.2-65-28.6-79.3-59.2c-11-23.4-11.6-47.5-1.9-69.8
		c16.9-38.7,63.6-70.5,138.7-94.3c52.5-16.6,122.6-21.2,208.5-13.5c63.4,5.7,111.1,16,113,16.5c5,1.1,9.2,4.7,10.9,9.6
		s0.9,10.3-2.3,14.3c-1.1,1.4-28.1,35.7-70.7,75.1c-57.6,53.4-113.5,89-166.2,105.7C1804.4,988.5,1767.5,995.1,1735.5,995.1z
		 M1884.3,780.7c-42.7,0-86.3,4-122.9,15.6c-82.8,26.3-111.1,56.7-120.2,77.7c-6.3,14.4-5.8,29.5,1.6,45.1
		c23.2,49.4,93.8,59.5,193.8,27.8c89.3-28.3,172-113.2,206.1-151.5C2009.6,789.6,1948,780.7,1884.3,780.7z"/>
</g>
<g>
	<path class="st0" d="M1811.9,333.4c0,0,42.7,196.4,6.1,321.8s-90.3,155.7-138.7,132.3c-48.4-23.4-73.3-91.6-36.7-217
		C1679.2,445,1811.9,333.4,1811.9,333.4z"/>
	<path class="st1" d="M1709.1,809.7c-12.1,0-24.3-2.9-36.4-8.7c-29.9-14.5-50.1-42.3-58.4-80.6c-8.8-40.8-4.1-92.6,13.8-154.1
		c15.8-54.1,49.9-111.7,101.5-171.1c38.1-44,71.2-72,72.6-73.2c4-3.4,9.5-4.4,14.5-2.7c5,1.7,8.7,5.9,9.8,11
		c0.4,2,10.9,50.7,17,115.7c8.3,87.9,4.5,159.7-11.2,213.5c-22.9,78.2-53.9,126.6-92.4,143.6C1730,807.4,1719.6,809.7,1709.1,809.7z
		 M1802.2,362.5c-37.5,35.7-118.6,120.9-145.2,212.1c-30.2,103.2-19.7,175.9,28.8,199.3c14.8,7.1,28.5,7.7,42.1,1.7
		c20.6-9.2,50.5-38.2,75.7-124.6C1831,557,1812,419.4,1802.2,362.5z"/>
</g>
<g>
	<path class="st0" d="M2250.1,583.7c0,0-101.1,128.7-215.5,165c-114.4,36.3-177.1,12.9-198.9-33.5s5.4-98.3,119.9-134.6
		C2070,544.3,2250.1,583.7,2250.1,583.7z"/>
	<path class="st1" d="M1935.5,781.5c-13.7,0-26.5-1.3-38.3-3.8c-35.5-7.7-61.5-27.1-75.1-56c-10.4-22.2-11-45.1-1.8-66.3
		c16-36.6,60-66.6,130.7-89c49.4-15.7,115.3-19.9,196-12.7c59.6,5.4,104.3,15.1,106.2,15.5c5,1.1,9.2,4.7,10.9,9.6
		s0.9,10.3-2.3,14.3c-1.1,1.4-26.5,33.5-66.4,70.6c-54.2,50.2-106.7,83.7-156.3,99.4C2000.3,775.3,1965.6,781.5,1935.5,781.5z
		 M2075.2,580.3c-40,0-80.8,3.7-115.1,14.6c-77.4,24.5-103.8,52.9-112.3,72.4c-5.8,13.2-5.3,27.2,1.4,41.5
		c21.6,45.9,87.4,55.2,180.8,25.6c82.5-26.2,159.3-104.2,191.9-140.7C2190.6,588.3,2133.8,580.3,2075.2,580.3z"/>
</g>
<g>
	<path class="st0" d="M2007.2,159.5c0,0,40.1,184.3,5.7,302c-34.4,117.7-84.7,146.1-130.2,124.1c-45.5-22-68.8-86-34.4-203.7
		C1882.6,264.3,2007.2,159.5,2007.2,159.5z"/>
	<path class="st1" d="M1910.7,607.5c-11.5,0-23.1-2.8-34.5-8.3c-28.4-13.7-47.5-40.1-55.3-76.3c-8.3-38.4-3.9-87.2,13-145.1
		c14.9-50.9,47-105,95.4-161c35.8-41.3,66.9-67.7,68.3-68.8c4-3.4,9.5-4.4,14.5-2.7c5,1.7,8.7,5.9,9.8,11
		c0.4,1.9,10.3,47.7,16,108.7c7.8,82.6,4.2,150.1-10.6,200.7c-21.5,73.7-50.9,119.2-87.2,135.4
		C1930.6,605.3,1920.7,607.5,1910.7,607.5z M1997.4,188.8c-35.7,34.2-110.1,113.1-134.8,197.4c-28.2,96.4-18.5,164.2,26.5,185.9
		c13.6,6.6,26.3,7.1,38.7,1.6c19.2-8.5,47-35.6,70.6-116.4C2023.9,370.4,2006.7,243.1,1997.4,188.8z"/>
</g>
<g>
	<path class="st0" d="M2403.5,400.7c0,0-91.9,117-195.9,150c-104,33-161,11.8-180.8-30.5c-19.8-42.2,5-89.4,109-122.4
		C2239.8,364.8,2403.5,400.7,2403.5,400.7z"/>
	<path class="st1" d="M2117.6,581.8c-12.6,0-24.3-1.2-35.1-3.5c-32.7-7.1-56.7-25-69.2-51.7c-9.7-20.5-10.2-41.8-1.6-61.4
		c14.7-33.7,55-61.1,119.7-81.7c106.6-33.8,268.7,1,275.5,2.5c5,1.1,9.2,4.7,10.9,9.6s0.9,10.3-2.3,14.3c-3.9,4.9-96,121-203.2,155
		C2176.8,576.2,2145.1,581.8,2117.6,581.8z M2244.5,398.9c-36.2,0-73.2,3.4-104.2,13.2c-69.9,22.2-93.6,47.6-101.2,65.1
		c-5.2,11.8-4.7,23.8,1.3,36.6c19.3,41,78.6,49.2,162.7,22.5c73.5-23.3,141.9-91.9,172.2-125.7
		C2346.4,405.8,2296.3,398.9,2244.5,398.9z"/>
</g>
<g>
	<path class="st0" d="M2182.8,15c0,0,36.4,167.6,5.2,274.6s-77,132.8-118.4,112.8c-41.3-20-62.6-78.2-31.3-185.2
		S2182.8,15,2182.8,15z"/>
	<path class="st1" d="M2095,423.6c-10.6,0-21.4-2.6-32-7.7c-26.2-12.6-43.8-37-51-70.3c-7.6-35.1-3.6-79.7,11.8-132.6
		c13.6-46.5,42.9-95.9,87-146.9c32.6-37.7,61-61.7,62.2-62.7c4-3.4,9.5-4.4,14.5-2.7c5,1.7,8.7,5.9,9.8,11c1.5,7,36.9,172.6,4.9,282
		c-19.7,67.4-46.6,109.1-80,124C2113.5,421.6,2104.3,423.6,2095,423.6z M2173,44.4c-33,31.9-98.4,102.2-120.3,177.1
		c-25.4,86.9-16.9,148,23.4,167.4c12,5.8,23.1,6.3,34,1.4c24.3-10.8,46.8-48.1,63.4-105C2196.2,207.9,2181.5,94.9,2173,44.4z
		 M2192.4,26.5L2192.4,26.5L2192.4,26.5z"/>
</g>
<g>
	<path class="st0" d="M2493.1,61.6c0,0-39.3,151.3-118.1,222.2s-135.5,70.1-167.3,34.7s-26.6-92,52.2-163S2493.1,61.6,2493.1,61.6z"
		/>
	<path class="st1" d="M2260.6,357.1c-1.7,0-3.4,0-5.1-0.1c-22.9-1.2-43.3-11.1-58.9-28.4c-20.3-22.6-55.7-85.9,53.4-184.1
		c81.2-73.1,234.5-96.7,241-97.7c5-0.7,10,1.1,13.4,4.8c3.4,3.7,4.6,8.9,3.4,13.8c-1.7,6.4-41.4,156.5-122.6,229.6
		C2339.3,336.2,2297.4,357.1,2260.6,357.1z M2471.8,80.8c-45.4,9.4-145.1,35-201.7,85.9c-34.4,31-56.3,61.2-63.1,87.4
		c-5.5,21-1.5,39.3,12,54.3c10.3,11.5,23.1,17.7,38.1,18.5c29.4,1.6,66.7-17.2,108-54.3C2421.6,221.7,2457.6,125,2471.8,80.8z"/>
</g>
<g>
	<path class="st0" d="M1159.9,1634.6c0,0-78.7,100.2-167.8,128.4c-89.1,28.3-137.9,10.1-154.9-26.1c-17-36.1,4.2-76.6,93.3-104.8
		C1019.7,1603.9,1159.9,1634.6,1159.9,1634.6z"/>
	<path class="st1" d="M914.9,1791.9c-10.9,0-21.1-1-30.5-3.1c-28.7-6.2-49.7-22-60.8-45.5c-8.5-18.2-9-37-1.4-54.4
		c12.9-29.4,47.8-53.4,103.8-71.1c91.9-29.1,231.2,0.8,237.1,2.1c5,1.1,9.2,4.7,10.9,9.6c1.7,4.9,0.9,10.3-2.3,14.3
		c-3.3,4.2-82.6,104.1-175.1,133.5C966.1,1787,938.8,1791.9,914.9,1791.9z M1023.7,1635.2c-30.8,0-62.2,2.9-88.6,11.2
		c-46.1,14.6-76.4,34-85.4,54.5c-4.2,9.5-3.8,19.2,1.1,29.6c16,34,65.8,40.7,136.7,18.2c60.4-19.2,116.9-74.5,143.9-104.1
		C1106.3,1640.5,1065.6,1635.2,1023.7,1635.2z"/>
</g>
<g>
	<g>
		<path class="st0" d="M29,2553.3c-3.3-1.7-6.3-4.2-8.7-7.3c-8.7-11.5-6.5-27.9,5-36.8c2.3-1.8,232.3-178.7,520.1-380.5
			c169.1-118.6,324.8-222.5,462.8-308.9c173-108.3,318.7-189.2,433-240.5c309.7-139,1209.8-634.5,1218.8-639.5
			c12.7-7,28.5-2.4,35.4,10.3c6.9,12.7,2.2,28.6-10.5,35.6c-9.1,5-911,501.5-1222.7,641.4c-201.5,90.4-508.2,278.6-887,544.3
			C288.5,2372.7,59.2,2549,56.9,2550.8C48.6,2557.2,37.7,2557.8,29,2553.3z"/>
		<path class="st1" d="M40.9,2571.2c-6.4,0-12.9-1.5-18.8-4.5c0,0,0,0,0,0c-5.4-2.8-10-6.7-13.7-11.6c-13.7-18-10.2-43.9,7.7-57.8
			c2.3-1.8,232.5-178.8,520.6-380.9c169.3-118.8,325.2-222.8,463.5-309.3c173.6-108.6,319.9-189.9,434.9-241.5
			c309.7-139,1208.7-633.9,1217.7-638.9c9.7-5.3,20.8-6.6,31.4-3.5c10.5,3.1,19.2,10.1,24.5,19.8c10.8,19.9,3.4,45-16.4,55.9
			c-9.1,5-910.5,501.3-1223.8,641.9c-200.6,90-506.5,277.8-884.5,542.9c-287.5,201.6-515.6,377.1-517.8,378.8
			C58.7,2568.3,49.8,2571.2,40.9,2571.2z M35.9,2540c3.8,2,8.4,1.5,11.9-1.1c2.3-1.8,230.9-177.6,518.9-379.6
			c379.6-266.2,687.1-454.9,889.5-545.7c312.1-140.1,1212.5-635.8,1221.6-640.8c5.5-3,7.5-9.9,4.5-15.3c-1.4-2.6-3.7-4.5-6.5-5.3
			c-2.8-0.8-5.8-0.5-8.5,0.9c-9.1,5-909.1,500.5-1219.9,640c-113.7,51-258.8,131.6-431.2,239.5c-137.8,86.2-293.2,190-462.1,308.4
			c-287.6,201.7-517.3,378.3-519.6,380.1c-4.9,3.8-5.9,10.9-2.2,15.8C33.2,2538.2,34.5,2539.2,35.9,2540L35.9,2540z"/>
	</g>
</g>
<g>
	<path class="st2" d="M1799.2,1696.2c0,0-143.1,99.6-271,100.9c-127.9,1.3-184.4-42-192.2-96.1c-7.8-54.1,36.2-98.5,164.1-99.8
		C1628.1,1599.9,1799.2,1696.2,1799.2,1696.2z"/>
	<path class="st1" d="M1522.6,1812.2c-60.2,0-108.2-9.8-142.8-29.2c-33.5-18.8-53.8-46.4-58.6-79.8c-3.7-25.6,2.8-48.9,18.6-67.3
		c27.5-32.1,81.4-48.8,160.2-49.6c55-0.6,123.5,15.6,203.3,48.1c59,24,101.5,47.8,103.3,48.8c4.5,2.5,7.4,7.2,7.6,12.4
		c0.2,5.2-2.2,10.1-6.4,13c-1.5,1-37.3,25.9-89.6,51.1c-70.7,34.2-134.6,51.9-189.8,52.4C1526.5,1812.1,1524.5,1812.2,1522.6,1812.2
		z M1502.8,1616.2c-0.8,0-1.6,0-2.5,0c-86.8,0.9-122.8,21.8-137.7,39.1c-10.2,11.9-14.1,26.5-11.7,43.5c7.7,54,72.4,84.3,177.2,83.2
		c93.7-1,197.6-57.9,241.4-84.6C1720,1672.4,1598.2,1616.2,1502.8,1616.2z"/>
</g>
<g>
	<path class="st2" d="M1684,1188.3c0,0-16.6,200.3-88.3,309.5c-71.7,109.2-131.9,122.4-171.3,85.9c-39.5-36.5-43.3-109.1,28.4-218.2
		C1524.5,1256.3,1684,1188.3,1684,1188.3z"/>
	<path class="st1" d="M1468.3,1616.9c-19.7,0-38.3-7.6-54.1-22.3c-24.4-22.6-35.5-55.1-32.2-94.1c3.5-41.5,23.1-89.8,58.3-143.3
		c30.9-47.1,80.4-92.2,147.1-134c49.3-30.9,89.2-48,90.8-48.7c4.8-2.1,10.4-1.4,14.7,1.6c4.3,3.1,6.6,8.2,6.2,13.4
		c-0.2,2.1-4.4,51.7-17.5,115.6c-17.8,86.4-42.4,154-73.2,200.9c-44.7,68.1-88.6,105.2-130.3,110.3
		C1474.7,1616.7,1471.5,1616.9,1468.3,1616.9z M1666.2,1213.3c-46.3,23.2-148.7,81-200.9,160.3c-59,89.9-70.2,162.4-30.7,199
		c12,11.1,25,15.7,39.7,13.9c22.4-2.7,59.5-21.8,108.9-97C1636.8,1407.8,1658.9,1270.6,1666.2,1213.3z"/>
</g>
<g>
	<path class="st2" d="M1521.1,1834.3c0,0-143.1,99.6-271,100.9c-127.9,1.3-184.4-42-192.2-96.1c-7.8-54.1,36.2-98.5,164.1-99.8
		C1349.9,1738,1521.1,1834.3,1521.1,1834.3z"/>
	<path class="st1" d="M1244.4,1950.2c-60.2,0-108.2-9.8-142.8-29.2c-33.5-18.8-53.8-46.4-58.6-79.8c-3.7-25.6,2.8-48.9,18.6-67.3
		c27.5-32.1,81.4-48.8,160.2-49.6c55.1-0.6,123.5,15.6,203.3,48.1c59,24,101.5,47.8,103.3,48.8c4.5,2.5,7.4,7.2,7.6,12.4
		c0.2,5.2-2.2,10.1-6.4,13c-1.5,1-37.3,25.9-89.6,51.1c-70.7,34.2-134.6,51.9-189.8,52.4C1248.3,1950.2,1246.4,1950.2,1244.4,1950.2
		z M1224.7,1754.3c-0.8,0-1.6,0-2.5,0c-86.8,0.9-122.8,21.8-137.7,39.1c-10.2,11.9-14.1,26.5-11.7,43.5c7.7,54,72.3,84.3,177.2,83.2
		c93.7-1,197.6-57.9,241.4-84.6C1441.8,1810.5,1320.1,1754.3,1224.7,1754.3z"/>
</g>
<g>
	<path class="st2" d="M1405.9,1326.4c0,0-16.6,200.3-88.3,309.5c-71.7,109.2-131.9,122.4-171.3,85.9
		c-39.5-36.5-43.3-109.1,28.4-218.2C1246.3,1394.3,1405.9,1326.4,1405.9,1326.4z"/>
	<path class="st1" d="M1190.2,1755c-19.7,0-38.3-7.6-54.1-22.3c-24.4-22.6-35.5-55.1-32.2-94.1c3.5-41.5,23.1-89.8,58.3-143.3
		c30.9-47.1,80.4-92.2,147.1-134c49.3-30.9,89.2-48,90.8-48.7c4.8-2.1,10.4-1.4,14.7,1.6c4.3,3.1,6.6,8.2,6.2,13.4
		c-0.2,2.1-4.4,51.7-17.5,115.6c-17.8,86.4-42.4,154-73.2,200.9c-44.7,68.1-88.6,105.2-130.3,110.3
		C1196.5,1754.8,1193.3,1755,1190.2,1755z M1388,1351.4c-46.3,23.2-148.7,81-200.9,160.3c-59,89.9-70.2,162.4-30.7,199
		c12,11.1,25,15.7,39.7,13.9c22.4-2.7,59.5-21.8,108.9-97C1358.7,1545.9,1380.8,1408.6,1388,1351.4z M1411.8,1340.2L1411.8,1340.2
		L1411.8,1340.2z"/>
</g>
<g>
	<path class="st2" d="M1121.2,1510.9c0,0-0.1,190-60.3,293.9c-60.2,103.9-116.8,116.7-157.6,82.3c-40.8-34.5-50.2-103.2,10-207.1
		S1121.2,1510.9,1121.2,1510.9z"/>
	<path class="st1" d="M946.7,1919.1c-18.8,0-36.9-7-53-20.7c-25-21.2-38.2-51.9-38.2-89c0.1-39.7,15.2-85.8,44.9-137
		c26.1-45.1,70.3-88.3,131.2-128.5c45-29.6,82-46.1,83.6-46.8c4.6-2.1,10-1.6,14.3,1.2c4.2,2.8,6.8,7.5,6.8,12.6
		c0,2-0.1,49.1-7.7,109.8c-10.3,82.3-28.6,146.7-54.6,191.5c-36.7,63.4-75.1,98.9-114,105.7C955.5,1918.7,951.1,1919.1,946.7,1919.1
		z M1105.5,1535.3c-42.4,22.1-135.7,77.1-179.2,152.2c-49.2,85-54.1,153.6-13.3,188.1c13.1,11.1,27.1,15.4,41.7,12.9
		c20.5-3.6,53.3-22.3,93.2-91.2C1092.9,1719.6,1103.2,1589.2,1105.5,1535.3z"/>
</g>
<g>
	<path class="st2" d="M2060.4,1547c0,0-143.1,99.6-271,100.9c-127.9,1.3-184.4-42-192.2-96.1c-7.8-54.1,36.2-98.5,164.1-99.8
		C1889.2,1450.7,2060.4,1547,2060.4,1547z"/>
	<path class="st1" d="M1783.8,1663c-60.2,0-108.2-9.8-142.8-29.2c-33.5-18.8-53.8-46.4-58.6-79.8c-3.7-25.6,2.8-48.9,18.6-67.3
		c27.5-32.1,81.4-48.8,160.2-49.6c55.1-0.6,123.5,15.6,203.3,48.1c59,24,101.5,47.8,103.3,48.8c4.5,2.5,7.4,7.2,7.6,12.4
		c0.2,5.2-2.2,10.1-6.4,13c-1.5,1-37.3,25.9-89.6,51.1c-70.7,34.2-134.6,51.9-189.8,52.4C1787.6,1662.9,1785.7,1663,1783.8,1663z
		 M1764,1467c-0.8,0-1.6,0-2.5,0c-86.8,0.9-122.8,21.8-137.7,39.1c-10.2,11.9-14.1,26.5-11.7,43.5c7.6,53.1,70.1,83.3,171.8,83.3
		c1.8,0,3.6,0,5.4,0c93.7-1,197.6-57.9,241.4-84.6C1981.1,1523.3,1859.4,1467,1764,1467z"/>
</g>
<g>
	<path class="st2" d="M1945.2,1039.1c0,0-16.6,200.3-88.3,309.5c-71.7,109.2-131.9,122.4-171.3,85.9
		c-39.5-36.5-43.3-109.1,28.4-218.2C1785.6,1107.1,1945.2,1039.1,1945.2,1039.1z"/>
	<path class="st1" d="M1729.5,1467.7c-19.7,0-38.3-7.6-54.1-22.3c-24.4-22.6-35.5-55.1-32.2-94.1c3.5-41.5,23.1-89.8,58.3-143.3
		c30.9-47.1,80.4-92.2,147.1-134c49.3-30.9,89.2-48,90.8-48.7c4.8-2.1,10.4-1.4,14.7,1.6c4.3,3.1,6.6,8.2,6.2,13.4
		c-0.2,2.1-4.4,51.7-17.5,115.6c-17.8,86.4-42.4,154-73.2,200.9c-44.7,68.1-88.6,105.2-130.3,110.3
		C1735.8,1467.5,1732.6,1467.7,1729.5,1467.7z M1927.3,1064.1c-46.3,23.2-148.7,81-200.9,160.3c-59,89.9-70.2,162.4-30.7,199
		c12,11.1,25,15.7,39.7,13.9c22.4-2.7,59.5-21.8,108.9-97C1898,1258.6,1920.1,1121.4,1927.3,1064.1z M1951.1,1052.9L1951.1,1052.9
		L1951.1,1052.9z"/>
</g>
<g>
	<path class="st2" d="M2321.9,1403.5c0,0-143.1,99.6-271,100.9c-127.9,1.3-184.4-42-192.2-96.1c-7.8-54.1,36.2-98.5,164.1-99.8
		S2321.9,1403.5,2321.9,1403.5z"/>
	<path class="st1" d="M2045.3,1519.4c-60.2,0-108.2-9.8-142.8-29.2c-33.5-18.8-53.8-46.4-58.6-79.8c-3.7-25.6,2.8-48.9,18.6-67.3
		c27.5-32.1,81.4-48.8,160.2-49.6c55-0.6,123.5,15.6,203.3,48.1c59,24,101.5,47.8,103.3,48.8c4.5,2.5,7.4,7.2,7.6,12.4
		c0.2,5.2-2.2,10.1-6.4,13c-1.5,1-37.3,25.9-89.6,51.1c-70.7,34.2-134.6,51.9-189.8,52.4C2049.2,1519.4,2047.2,1519.4,2045.3,1519.4
		z M2025.5,1323.5c-0.8,0-1.6,0-2.5,0c-86.8,0.9-122.8,21.8-137.7,39.1c-10.2,11.9-14.1,26.5-11.7,43.5c7.7,54,72.4,84.3,177.2,83.2
		c93.7-1,197.6-57.9,241.4-84.6C2242.7,1379.7,2120.9,1323.5,2025.5,1323.5z"/>
</g>
<g>
	<path class="st2" d="M2206.7,895.6c0,0-16.6,200.3-88.3,309.5c-71.7,109.2-131.9,122.4-171.3,85.9
		c-39.5-36.5-43.3-109.1,28.4-218.2C2047.1,963.5,2206.7,895.6,2206.7,895.6z"/>
	<path class="st1" d="M1991,1324.2c-19.7,0-38.3-7.6-54.1-22.3c-24.4-22.6-35.5-55.1-32.2-94.2c3.5-41.5,23.1-89.8,58.3-143.3
		c30.9-47.1,80.4-92.2,147.1-134c49.3-30.9,89.2-48,90.8-48.7c4.8-2.1,10.4-1.4,14.7,1.6c4.3,3.1,6.6,8.2,6.2,13.4
		c-0.2,2.1-4.4,51.7-17.5,115.6c-17.8,86.4-42.4,154-73.2,200.9c-44.7,68.1-88.6,105.2-130.3,110.3
		C1997.4,1324,1994.2,1324.2,1991,1324.2z M2188.9,920.6c-46.3,23.2-148.7,81-200.9,160.3c-59,89.9-70.2,162.4-30.7,199
		c12,11.1,25,15.7,39.7,13.9c22.4-2.7,59.5-21.8,108.9-97C2159.6,1115,2181.7,977.9,2188.9,920.6z M2212.6,909.4L2212.6,909.4
		L2212.6,909.4z"/>
</g>
<g>
	<path class="st2" d="M2552.4,1263.2c0,0-134.3,93.5-254.3,94.7c-120,1.2-173.1-39.4-180.4-90.2c-7.3-50.8,34-92.4,154-93.7
		S2552.4,1263.2,2552.4,1263.2z"/>
	<path class="st1" d="M2292.8,1372.9c-56.7,0-101.9-9.3-134.5-27.5c-31.7-17.8-50.9-43.9-55.4-75.6c-3.5-24.3,2.6-46.4,17.7-63.9
		c26-30.3,76.8-46.1,151-46.9c51.8-0.5,116.1,14.7,191.2,45.2c55.4,22.5,95.4,44.9,97,45.9c4.5,2.5,7.4,7.2,7.6,12.4
		c0.2,5.2-2.2,10.1-6.4,13c-1.4,1-35.1,24.3-84.2,48.1c-66.5,32.2-126.5,48.8-178.6,49.3C2296.4,1372.9,2294.6,1372.9,2292.8,1372.9
		z M2274.2,1189c-0.8,0-1.5,0-2.3,0c-81.2,0.8-114.7,20.3-128.6,36.4c-9.4,10.9-13,24.5-10.8,40.1c7.2,50.2,67.5,78.3,165.4,77.3
		c86.7-0.9,182.9-53,224.6-78.4C2475.3,1240.6,2362.6,1189,2274.2,1189z"/>
</g>
<g>
	<path class="st2" d="M2444.3,786.5c0,0-15.6,188-82.9,290.5c-67.3,102.5-123.8,114.9-160.8,80.6c-37-34.3-40.6-102.4,26.7-204.8
		S2444.3,786.5,2444.3,786.5z"/>
	<path class="st1" d="M2241.8,1189.7c-18.8,0-36.4-7.2-51.4-21.1c-23.1-21.4-33.7-52.2-30.6-89.1c3.3-39.1,21.8-84.6,54.9-134.9
		c29.1-44.3,75.6-86.7,138.3-126c46.3-29,83.8-45.1,85.4-45.8c4.8-2.1,10.4-1.4,14.7,1.6c4.3,3.1,6.6,8.2,6.2,13.4
		c-0.2,2-4.1,48.6-16.5,108.6c-16.7,81.2-39.9,144.8-68.8,188.9c-42.1,64.2-83.5,99.2-123,104
		C2247.9,1189.5,2244.8,1189.7,2241.8,1189.7z M2426.4,811.6c-44.1,22.2-138.4,75.9-186.6,149.4c-55.1,84-65.7,151.6-29,185.6
		c11.1,10.3,23,14.5,36.5,12.8c20.8-2.5,55.3-20.3,101.5-90.7C2398.6,993,2419.4,866.2,2426.4,811.6z M2450.2,800.3L2450.2,800.3
		L2450.2,800.3z"/>
</g>
<g>
	<path class="st2" d="M2752.8,1133c0,0-122.1,85-231.2,86.1s-157.4-35.8-164-82s30.9-84,140-85.2
		C2606.7,1050.8,2752.8,1133,2752.8,1133z"/>
	<path class="st1" d="M2516.7,1234.1c-51.7,0-93.1-8.5-122.9-25.2c-29.2-16.4-46.9-40.5-51.1-69.7c-3.2-22.5,2.4-42.9,16.4-59.2
		c23.9-27.9,70.5-42.4,138.3-43.1c0.8,0,1.6,0,2.4,0c111.5,0,254.3,79.6,260.3,83c4.5,2.5,7.4,7.2,7.6,12.4c0.2,5.2-2.2,10.1-6.4,13
		c-5.1,3.6-127.2,87.6-239.6,88.8C2520,1234.1,2518.4,1234.1,2516.7,1234.1z M2499.8,1066.9c-0.7,0-1.4,0-2.1,0
		c-73.3,0.8-103.5,18.2-115.9,32.6c-8.4,9.8-11.5,21.4-9.5,35.4c6.3,44.1,58.9,69.2,144.4,69.2c1.5,0,3.1,0,4.6,0
		c77.1-0.8,162.5-46.4,201.4-69.8C2678.7,1112.2,2578.6,1066.9,2499.8,1066.9z"/>
</g>
<g>
	<path class="st2" d="M2654.4,699.6c0,0-14.2,170.9-75.4,264.1c-61.2,93.2-112.5,104.5-146.2,73.3c-33.7-31.2-36.9-93.1,24.2-186.2
		C2518.3,757.6,2654.4,699.6,2654.4,699.6z"/>
	<path class="st1" d="M2470.4,1067.5c-17.4,0-33.7-6.7-47.7-19.6c-21.3-19.7-31.1-48.1-28.2-82.1c3-35.8,19.9-77.3,50.1-123.3
		c26.6-40.4,69-79.1,126.2-115c42.2-26.5,76.4-41.1,77.8-41.7c4.8-2.1,10.4-1.4,14.7,1.6c4.3,3.1,6.6,8.2,6.2,13.4
		c-0.6,7.1-15.2,175.8-77.8,271.1c-38.5,58.7-76.5,90.7-112.8,95.1C2476,1067.4,2473.2,1067.5,2470.4,1067.5z M2636.5,724.8
		c-40.9,20.8-124,68.9-166.8,134.2c-49.7,75.7-59.4,136.6-26.6,167c9.8,9,20.3,12.7,32.1,11.3c26.4-3.2,58.8-32.3,91.3-81.8
		C2610.9,887.9,2629.9,775.6,2636.5,724.8z"/>
</g>
<g>
	<path class="st2" d="M2937.6,835c0,0-81.8,133.2-177.9,178c-96.1,44.8-150.1,27.4-170.1-15.8c-20-43.2,1.5-95.8,97.6-140.5
		C2783.3,811.8,2937.6,835,2937.6,835z"/>
	<path class="st1" d="M2662.4,1054.2c-14,0-26.9-2.1-38.4-6.3c-21.6-7.9-38.2-23.2-48-44.4c-12.8-27.6-28.2-98.4,104.9-160.5
		c99.1-46.2,252.5-23.9,259-22.9c5,0.7,9.3,3.9,11.4,8.5c2.1,4.6,1.8,9.9-0.8,14.2c-3.4,5.6-85.3,137.6-184.4,183.7
		C2726.5,1045,2691.8,1054.2,2662.4,1054.2z M2845.9,844c-48.5,0-107.6,5.3-152.3,26.2c-42,19.6-71.7,42.1-85.9,65.2
		c-11.4,18.5-12.9,37.2-4.4,55.5c6.5,14,16.9,23.7,31.1,28.8c27.7,10.1,68.9,3.1,119.1-20.4c69.1-32.2,131.8-114.2,158.2-152.2
		C2895.4,845.6,2872.1,844,2845.9,844z"/>
</g>
<g>
	<path class="st2" d="M1226.6,1948.2c0,0-104.6,72.8-198,73.7c-93.5,1-134.8-30.7-140.5-70.2c-5.7-39.5,26.4-72,119.9-72.9
		S1226.6,1948.2,1226.6,1948.2z"/>
	<path class="st1" d="M1024.5,2037c-44.7,0-80.5-7.3-106.3-21.9c-25.6-14.4-41.1-35.6-44.8-61.3c-2.9-19.9,2.2-38,14.5-52.4
		c20.9-24.4,61.3-37,120.1-37.7c0.7,0,1.4,0,2.1,0c96.1,0,218.8,68.4,224,71.4c4.5,2.5,7.4,7.2,7.6,12.4s-2.2,10.1-6.4,13
		c-4.4,3.1-109.5,75.4-206.4,76.4C1027.3,2037,1025.9,2037,1024.5,2037z M1010,1893.8c-0.6,0-1.2,0-1.8,0
		c-48.3,0.5-83,10.2-97.6,27.2c-6.8,7.9-9.2,17.2-7.6,28.6c5.3,37.2,51.1,58.1,125.5,57.4c63.4-0.7,133.6-37,168.1-57.5
		C1157.3,1930.1,1075,1893.8,1010,1893.8z"/>
</g>
</svg>
